<svg viewBox="0 0 187.2 116.78" xmlns="http://www.w3.org/2000/svg" xmlns:xlink="http://www.w3.org/1999/xlink"><linearGradient id="a" gradientUnits="userSpaceOnUse" x1="36.17" x2="36.17" y1="105.64" y2="94.15"><stop offset=".4" stop-color="#bda369"/><stop offset=".68" stop-color="#ebc984"/></linearGradient><linearGradient id="b" x1="46.76" x2="46.76" xlink:href="#a" y1="105.5" y2="94.15"/><linearGradient id="c" x1="58.23" x2="58.23" xlink:href="#a" y1="105.61" y2="94.15"/><linearGradient id="d" x1="71.51" x2="71.51" xlink:href="#a" y1="105.5" y2="94.15"/><linearGradient id="e" x1="84.06" x2="84.06" xlink:href="#a" y1="105.5" y2="93.99"/><linearGradient id="f" x1="97.69" x2="97.69" xlink:href="#a" y1="105.77" y2="93.91"/><linearGradient id="g" x1="110.84" x2="110.84" xlink:href="#a" y1="105.5" y2="94.15"/><linearGradient id="h" x1="65.85" x2="65.85" xlink:href="#a" y1="118.53" y2="112.33"/><linearGradient id="i" x1="73.6" x2="73.6" xlink:href="#a" y1="118.53" y2="112.33"/><linearGradient id="j" x1="81.04" x2="81.04" xlink:href="#a" y1="118.43" y2="112.48"/><linearGradient id="k" x1="87.6" x2="87.6" xlink:href="#a" y1="118.43" y2="112.48"/><linearGradient id="l" x1="94.29" x2="94.29" xlink:href="#a" y1="118.43" y2="112.43"/><linearGradient id="m" x1="101.44" x2="101.44" xlink:href="#a" y1="118.53" y2="112.33"/><linearGradient id="n" x1="108.48" x2="108.48" xlink:href="#a" y1="118.43" y2="112.43"/><linearGradient id="o" x1="115.6" x2="115.6" xlink:href="#a" y1="118.53" y2="112.33"/><linearGradient id="p" x1="123.59" x2="123.59" xlink:href="#a" y1="118.43" y2="112.43"/><linearGradient id="q" x1="127.42" x2="127.42" xlink:href="#a" y1="105.77" y2="93.91"/><linearGradient id="r" x1="139.96" x2="139.96" xlink:href="#a" y1="105.5" y2="93.99"/><linearGradient id="s" x1="153.7" x2="153.7" xlink:href="#a" y1="105.5" y2="94.15"/><linearGradient id="t" x1="90.75" x2="95.44" xlink:href="#a" y1="80.25" y2="53.64"/><linearGradient id="u" x1="94.13" x2="97.69" xlink:href="#a" y1="21.69" y2="1.54"/><linearGradient id="v" x1="88.46" x2="98.03" xlink:href="#a" y1="57.73" y2="3.46"/><linearGradient id="w" x1="90.57" x2="99.25" xlink:href="#a" y1="62.07" y2="12.83"/><g transform="translate(-1.31 -1.76)"><path d="m41.94 94.72a3.16 3.16 0 0 0 -.5.09 2.06 2.06 0 0 0 -.44.19 1.26 1.26 0 0 0 -.43.43 5.82 5.82 0 0 0 -.33.62c-.35.85-.89 2.17-1.6 4s-1.45 3.66-2.21 5.6h-.66q-1.15-3.09-2.23-6c-.71-1.91-1.2-3.21-1.45-3.88a1.54 1.54 0 0 0 -.26-.43 1.72 1.72 0 0 0 -.9-.56 2.44 2.44 0 0 0 -.49-.09v-.57h4.7v.57a6.51 6.51 0 0 0 -1 .12c-.27.06-.41.17-.41.31a.88.88 0 0 0 0 .21c0 .08 0 .15.06.19l1 2.56 1.89 5c.4-1 .87-2.16 1.4-3.5s.88-2.27 1.06-2.77a6.36 6.36 0 0 0 .31-1 2.84 2.84 0 0 0 0-.45.36.36 0 0 0 -.16-.31 1.39 1.39 0 0 0 -.44-.21 2.4 2.4 0 0 0 -.53-.12l-.56-.07v-.57h4.22z" fill="url(#a)"/><path d="m49.31 105.5h-5.1v-.57h.62a2.86 2.86 0 0 0 .57-.1.8.8 0 0 0 .39-.29.86.86 0 0 0 .12-.5v-8.25a1.06 1.06 0 0 0 -.09-.47.73.73 0 0 0 -.42-.32 5 5 0 0 0 -.6-.18 4.83 4.83 0 0 0 -.59-.1v-.57h5.1v.57l-.59.06a5.57 5.57 0 0 0 -.6.13.61.61 0 0 0 -.4.32 1.06 1.06 0 0 0 -.11.48v8.21a.94.94 0 0 0 .12.47.8.8 0 0 0 .39.32 4.66 4.66 0 0 0 .55.14 3.47 3.47 0 0 0 .64.08z" fill="url(#b)"/><path d="m64.34 94.72a4.18 4.18 0 0 0 -.68.13 2.43 2.43 0 0 0 -.67.25 1.1 1.1 0 0 0 -.38.77 8 8 0 0 0 -.1 1.43v8.31h-.7l-6.88-9.28v5.85a7.06 7.06 0 0 0 .13 1.51 1.39 1.39 0 0 0 .38.76 1.91 1.91 0 0 0 .76.32 4.06 4.06 0 0 0 .76.16v.57h-4.66v-.57a4.43 4.43 0 0 0 .73-.15 2.2 2.2 0 0 0 .64-.25 1.11 1.11 0 0 0 .38-.69 8 8 0 0 0 .11-1.57v-5.59a2.08 2.08 0 0 0 -.16-.68 1.42 1.42 0 0 0 -.34-.57 2.43 2.43 0 0 0 -.78-.45 2.71 2.71 0 0 0 -.8-.21v-.57h3.24l6.38 8.65v-5.44a6.56 6.56 0 0 0 -.13-1.52 1.15 1.15 0 0 0 -.37-.71 2.66 2.66 0 0 0 -.73-.3 4.39 4.39 0 0 0 -.77-.16v-.57h4.61z" fill="url(#c)"/><path d="m76.46 97.23h-.56a3 3 0 0 0 -.26-.68 5.52 5.52 0 0 0 -.42-.75 3.72 3.72 0 0 0 -.52-.64 1 1 0 0 0 -.55-.32h-.63-1.16v9.07a1.14 1.14 0 0 0 .11.49.8.8 0 0 0 .4.34l.6.15a4.29 4.29 0 0 0 .72.1v.57h-5.36v-.57l.68-.06a2.48 2.48 0 0 0 .64-.12.85.85 0 0 0 .39-.3 1 1 0 0 0 .12-.52v-9.21h-1.08-.7a1 1 0 0 0 -.55.32 3.63 3.63 0 0 0 -.52.64 4.46 4.46 0 0 0 -.43.77 3.82 3.82 0 0 0 -.25.66h-.56v-3.02h9.89z" fill="url(#d)"/><path d="m89.9 105.5h-4.71v-.57a4.46 4.46 0 0 0 1-.16c.28-.08.41-.18.41-.29a1.21 1.21 0 0 0 0-.18.78.78 0 0 0 -.05-.18l-.94-2.55h-4c-.15.38-.27.7-.37 1l-.25.77a3.77 3.77 0 0 0 -.14.56 1.7 1.7 0 0 0 0 .35c0 .21.17.38.5.49a4 4 0 0 0 1.14.21v.57h-4.28v-.57a3.16 3.16 0 0 0 .52-.09 2 2 0 0 0 .52-.2 2.42 2.42 0 0 0 .49-.45 2.86 2.86 0 0 0 .34-.66c.58-1.42 1.2-3 1.89-4.79l1.84-4.76h.64l3.78 9.79a1.78 1.78 0 0 0 .27.5 2 2 0 0 0 .43.38 1.55 1.55 0 0 0 .48.19 2.06 2.06 0 0 0 .49.08zm-4.56-4.64-1.72-4.4-1.69 4.4z" fill="url(#e)"/><path d="m103.25 101-.51.07a2 2 0 0 0 -.53.15.7.7 0 0 0 -.34.34 1.36 1.36 0 0 0 -.1.51v.88 1.3s0 .41 0 .55a11.8 11.8 0 0 1 -2.11.74 8.88 8.88 0 0 1 -2.08.25 5.37 5.37 0 0 1 -2.09-.41 5.09 5.09 0 0 1 -1.76-1.16 5.51 5.51 0 0 1 -1.21-1.84 6.54 6.54 0 0 1 -.44-2.44 6.73 6.73 0 0 1 .42-2.4 5.77 5.77 0 0 1 1.22-1.93 5.26 5.26 0 0 1 1.81-1.24 5.82 5.82 0 0 1 2.25-.44 5.27 5.27 0 0 1 1.67.23 5.76 5.76 0 0 1 1.25.56l.33-.55h.64l.07 4h-.65a11.43 11.43 0 0 0 -.42-1.29 4.53 4.53 0 0 0 -.64-1.14 2.86 2.86 0 0 0 -1-.8 2.81 2.81 0 0 0 -1.35-.3 3.24 3.24 0 0 0 -1.52.34 3.39 3.39 0 0 0 -1.17 1 4.9 4.9 0 0 0 -.76 1.66 8.88 8.88 0 0 0 -.26 2.21 7.92 7.92 0 0 0 .26 2 5 5 0 0 0 .76 1.65 3.5 3.5 0 0 0 1.24 1.12 3.75 3.75 0 0 0 3 .19 2.25 2.25 0 0 0 .82-.45 4.76 4.76 0 0 0 .07-.84c0-.28 0-.52 0-.72v-.62a1.79 1.79 0 0 0 -.1-.6.62.62 0 0 0 -.38-.38 2.51 2.51 0 0 0 -.71-.18c-.3 0-.54-.06-.71-.07v-.59h5z" fill="url(#f)"/><path d="m115.65 102.16-.21 3.34h-9.44v-.57c.16 0 .37 0 .64-.07a2.58 2.58 0 0 0 .52-.1.72.72 0 0 0 .35-.31 1 1 0 0 0 .1-.49v-8.16a1.4 1.4 0 0 0 -.08-.47.76.76 0 0 0 -.37-.33 2.67 2.67 0 0 0 -.58-.18 3.52 3.52 0 0 0 -.58-.1v-.57h8.78v2.74h-.6a3.72 3.72 0 0 0 -.69-1.29 1.71 1.71 0 0 0 -1-.75h-.59-2.56v4.45h1.28a2.48 2.48 0 0 0 .9-.12 1.29 1.29 0 0 0 .49-.39 1.89 1.89 0 0 0 .3-.62 3.63 3.63 0 0 0 .17-.73h.6v4.45h-.6a3.75 3.75 0 0 0 -.17-.82 1.91 1.91 0 0 0 -.3-.61 1.09 1.09 0 0 0 -.56-.41 2.72 2.72 0 0 0 -.83-.1h-1.28v3.4a3.52 3.52 0 0 0 .07.81.81.81 0 0 0 .28.45 1.24 1.24 0 0 0 .57.19 9 9 0 0 0 1 0h.7.72a5.22 5.22 0 0 0 .63-.11 1 1 0 0 0 .46-.23 5 5 0 0 0 .77-1.16 8.84 8.84 0 0 0 .52-1.15z" fill="url(#g)"/><path d="m67.29 116.22 1.17.38a2.66 2.66 0 0 1 -.9 1.46 2.52 2.52 0 0 1 -1.59.47 2.61 2.61 0 0 1 -2-.81 3.16 3.16 0 0 1 -.77-2.24 3.24 3.24 0 0 1 .78-2.32 2.61 2.61 0 0 1 2-.83 2.47 2.47 0 0 1 1.79.65 2.29 2.29 0 0 1 .62 1.1l-1.2.29a1.25 1.25 0 0 0 -1.27-1 1.37 1.37 0 0 0 -1.08.48 2.34 2.34 0 0 0 -.42 1.55 2.58 2.58 0 0 0 .41 1.63 1.35 1.35 0 0 0 1.07.48 1.19 1.19 0 0 0 .83-.31 1.78 1.78 0 0 0 .56-.98z" fill="url(#h)"/><path d="m70.69 115.47a3.69 3.69 0 0 1 .28-1.54 2.7 2.7 0 0 1 .56-.83 2.34 2.34 0 0 1 .77-.54 3.51 3.51 0 0 1 1.3-.23 2.81 2.81 0 0 1 2.12.82 3.16 3.16 0 0 1 .79 2.29 3.11 3.11 0 0 1 -.79 2.27 2.77 2.77 0 0 1 -2.11.82 2.85 2.85 0 0 1 -2.13-.81 3.15 3.15 0 0 1 -.79-2.25zm1.25 0a2.25 2.25 0 0 0 .47 1.54 1.62 1.62 0 0 0 2.39 0 2.3 2.3 0 0 0 .46-1.57 2.27 2.27 0 0 0 -.45-1.54 1.67 1.67 0 0 0 -2.41 0 2.24 2.24 0 0 0 -.46 1.53z" fill="url(#i)"/><path d="m78.93 118.43v-6h1.21v4.94h3v1z" fill="url(#j)"/><path d="m85.48 118.43v-6h1.22v4.94h3v1z" fill="url(#k)"/><path d="m92 118.43v-6h4.45v1h-3.23v1.33h3v1h-3v1.63h3.35v1z" fill="url(#l)"/><path d="m102.88 116.22 1.17.38a2.66 2.66 0 0 1 -.9 1.46 2.54 2.54 0 0 1 -1.59.47 2.61 2.61 0 0 1 -2-.81 3.16 3.16 0 0 1 -.77-2.24 3.24 3.24 0 0 1 .78-2.32 2.61 2.61 0 0 1 2-.83 2.47 2.47 0 0 1 1.79.65 2.38 2.38 0 0 1 .62 1.1l-1.2.29a1.31 1.31 0 0 0 -.45-.74 1.26 1.26 0 0 0 -.82-.27 1.36 1.36 0 0 0 -1.08.48 2.34 2.34 0 0 0 -.42 1.55 2.58 2.58 0 0 0 .41 1.63 1.34 1.34 0 0 0 1.07.48 1.21 1.21 0 0 0 .83-.31 1.78 1.78 0 0 0 .56-.97z" fill="url(#m)"/><path d="m107.88 118.43v-5h-1.78v-1h4.77v1h-1.78v5z" fill="url(#n)"/><path d="m112.69 115.47a3.86 3.86 0 0 1 .27-1.54 2.89 2.89 0 0 1 .56-.83 2.34 2.34 0 0 1 .77-.54 3.51 3.51 0 0 1 1.3-.23 2.81 2.81 0 0 1 2.12.82 3.67 3.67 0 0 1 0 4.56 3.16 3.16 0 0 1 -4.24 0 3.1 3.1 0 0 1 -.78-2.24zm1.24 0a2.25 2.25 0 0 0 .47 1.54 1.62 1.62 0 0 0 2.39 0 2.3 2.3 0 0 0 .47-1.57 2.27 2.27 0 0 0 -.46-1.54 1.67 1.67 0 0 0 -2.41 0 2.29 2.29 0 0 0 -.46 1.53z" fill="url(#o)"/><path d="m120.89 118.43v-6h2.55a4.33 4.33 0 0 1 1.4.16 1.37 1.37 0 0 1 .7.58 1.75 1.75 0 0 1 .26.94 1.6 1.6 0 0 1 -.4 1.12 1.87 1.87 0 0 1 -1.18.55 2.63 2.63 0 0 1 .65.51 6.48 6.48 0 0 1 .69 1l.73 1.17h-1.45l-.88-1.3a7.42 7.42 0 0 0 -.64-.89.94.94 0 0 0 -.32-.27 2.24 2.24 0 0 0 -.61-.06h-.25v2.5zm1.21-3.43h.9a4.44 4.44 0 0 0 1.09-.08.66.66 0 0 0 .34-.25.79.79 0 0 0 .12-.45.71.71 0 0 0 -.16-.49.82.82 0 0 0 -.46-.24c-.09 0-.39 0-.88 0h-1z" fill="url(#p)"/><path d="m127.74 105.77a4.83 4.83 0 0 1 -1.95-.4 4.92 4.92 0 0 1 -1.65-1.15 5.55 5.55 0 0 1 -1.13-1.84 6.47 6.47 0 0 1 -.43-2.44 6.92 6.92 0 0 1 .42-2.47 5.9 5.9 0 0 1 1.15-1.91 5 5 0 0 1 1.72-1.22 5.17 5.17 0 0 1 2.11-.43 5.49 5.49 0 0 1 1.52.2 5.77 5.77 0 0 1 1.29.59l.33-.55h.64l.07 4h-.65a9.07 9.07 0 0 0 -.39-1.28 5.32 5.32 0 0 0 -.59-1.17 3 3 0 0 0 -.91-.86 2.44 2.44 0 0 0 -1.21-.3 3.06 3.06 0 0 0 -1.44.34 3.3 3.3 0 0 0 -1.16 1 5 5 0 0 0 -.72 1.65 8.52 8.52 0 0 0 -.27 2.23 6.93 6.93 0 0 0 .28 2 5.09 5.09 0 0 0 .79 1.6 3.7 3.7 0 0 0 1.21 1.06 3.11 3.11 0 0 0 1.56.39 3.5 3.5 0 0 0 1.19-.2 3.45 3.45 0 0 0 .94-.54 4.42 4.42 0 0 0 .7-.8 4.31 4.31 0 0 0 .5-1l.6.29a5 5 0 0 1 -1.82 2.41 5 5 0 0 1 -2.7.8z" fill="url(#q)"/><path d="m145.8 105.5h-4.72v-.57a4.56 4.56 0 0 0 1-.16c.27-.08.41-.18.41-.29a1.21 1.21 0 0 0 0-.18c0-.07 0-.13-.05-.18l-.94-2.55h-4c-.15.38-.28.7-.37 1s-.18.53-.25.77-.12.41-.15.56a2.88 2.88 0 0 0 0 .35c0 .21.17.38.51.49a3.85 3.85 0 0 0 1.13.21v.57h-4.27v-.57a3.34 3.34 0 0 0 .52-.09 1.75 1.75 0 0 0 .51-.2 2.25 2.25 0 0 0 .5-.45 3.32 3.32 0 0 0 .34-.66q.86-2.13 1.89-4.79l1.85-4.76h.64l3.78 9.79a1.78 1.78 0 0 0 .27.5 1.64 1.64 0 0 0 .43.38 1.59 1.59 0 0 0 .47.19 2.21 2.21 0 0 0 .5.08zm-4.56-4.64-1.72-4.4-1.7 4.4z" fill="url(#r)"/><path d="m159.22 105.5h-3.05c-.68-1.06-1.29-2-1.84-2.75s-1.13-1.57-1.77-2.39h-1.16v3.64a1.48 1.48 0 0 0 .08.49.62.62 0 0 0 .38.32 2.79 2.79 0 0 0 .5.11 5.29 5.29 0 0 0 .61.05v.57h-4.8v-.57l.56-.05a1.79 1.79 0 0 0 .51-.11.67.67 0 0 0 .34-.3 1 1 0 0 0 .11-.51v-8.25a1.26 1.26 0 0 0 -.08-.49.59.59 0 0 0 -.37-.33 3.56 3.56 0 0 0 -.52-.13 5.2 5.2 0 0 0 -.55-.08v-.57h5.24a5.82 5.82 0 0 1 1.35.15 3.63 3.63 0 0 1 1.14.48 2.35 2.35 0 0 1 .8.83 2.57 2.57 0 0 1 .29 1.25 3 3 0 0 1 -.2 1.16 2.44 2.44 0 0 1 -.59.87 3.36 3.36 0 0 1 -.86.59 6.92 6.92 0 0 1 -1.11.43c.56.74 1 1.37 1.39 1.87l1.36 1.85a3.92 3.92 0 0 0 .64.71 4.15 4.15 0 0 0 .56.37 2.13 2.13 0 0 0 .52.16 2.85 2.85 0 0 0 .52.06zm-4.22-8.45a2.06 2.06 0 0 0 -2.27-2.24h-1.33v4.86h1a2.47 2.47 0 0 0 2.6-2.62z" fill="url(#s)"/><path d="m108.52 65.57c.39-.95.78-1.82 1.16-2.62.4-1 .92-2.18 1.54-3.55a12.63 12.63 0 0 1 1.38-2.73 26.11 26.11 0 0 1 -17.11 6.95h-1.17a26.11 26.11 0 0 1 -17.1-6.95 12.19 12.19 0 0 1 1.37 2.73c.63 1.37 1.15 2.59 1.55 3.55.38.8.77 1.67 1.16 2.62.79 1.3 1.49 2.54 2.13 3.63.94 1.62 1.69 2.9 2.24 3.64.12.16.27.37.44.62 1.37 1.93 4.88 6.88 8.21 7.42h1.17c3.34-.54 6.85-5.49 8.22-7.42.17-.25.32-.46.44-.62.55-.74 1.29-2 2.24-3.64.61-1.09 1.33-2.33 2.13-3.63z" fill="url(#t)"/><path d="m70.25 17.48h7.81a26 26 0 0 1 16.26-6.2h1.17a26 26 0 0 1 16.26 6.2h7.82c-.38-4-1.67-6.85-5.59-10.16-6.49-5.32-16.09-5.58-18.49-5.56h-1.17c-2.39 0-12 .22-18.48 5.56-3.92 3.31-5.21 6.17-5.59 10.16z" fill="url(#u)"/><path d="m59.52 30.86-34.34 8.58c3 1.08 6.92 2.32 12.12 3.66l23.27-8.33c-.4-1.29-.75-2.59-1.05-3.91z" fill="#f5f3e0"/><path d="m62.57 40.18-11.78 6c5 1 15.28 3.19 22.17 8.8a62.14 62.14 0 0 1 -7.28-8.98 43.17 43.17 0 0 1 -3.11-5.82z" fill="#f5f3e0"/><path d="m58.3 18.65h-50.06c-.26 0-.59 0-1 0-1.76 0-4.57.28-5.62 1.55-.55.73-.41 1.73.43 3a26.27 26.27 0 0 0 2.1 2.59l54.21-4.35c-.02-1.02-.04-1.94-.06-2.79z" fill="#f5f3e0"/><path d="m60.92 35.89-21.59 7.73c2.85.7 6.05 1.43 9.63 2.17l13.17-6.69c-.43-1.05-.84-2.1-1.21-3.21z" fill="#f5f3e0"/><path d="m188.17 20.17c-1-1.27-3.85-1.55-5.61-1.55-.39 0-.73 0-1 0h-50.05c0 .85 0 1.77-.08 2.72l54.22 4.35a26.27 26.27 0 0 0 2.1-2.59c.84-1.2.98-2.2.42-2.93z" fill="#f5f3e0"/><path d="m59.12 28.92c-.14-.8-.26-1.65-.36-2.52l-44.87 7.44c.89.6 1.84 1.21 2.86 1.82l.3.17a48.53 48.53 0 0 0 6.21 2.88l36-9c-.03-.26-.09-.53-.14-.79z" fill="#f5f3e0"/><path d="m130.7 28.92c0 .26-.12.53-.17.8l36 9a48.53 48.53 0 0 0 6.21-2.88l.3-.17c1-.61 2-1.22 2.86-1.82l-44.84-7.45c-.06.87-.22 1.72-.36 2.52z" fill="#f5f3e0"/><path d="m58.44 22.54-53.24 4.27a53.52 53.52 0 0 0 7.29 6.08l46.15-7.66c-.09-.89-.15-1.8-.2-2.69z" fill="#f5f3e0"/><path d="m129.24 34.77 23.28 8.33c5.2-1.34 9.14-2.58 12.12-3.66l-34.35-8.58c-.29 1.32-.65 2.62-1.05 3.91z" fill="#f5f3e0"/><path d="m75.31 20.19.45-.5c.33-.35.67-.7 1-1h-17.28c0 .82 0 1.71.07 2.63q0 .57.06 1.17c0 .86.11 1.73.19 2.59 0 .39.07.78.11 1.16.1.88.22 1.72.36 2.51 0 .24.1.48.15.73s.15.76.24 1.14c.28 1.27.63 2.54 1 3.8.12.37.23.74.35 1.11.35 1 .74 2.07 1.15 3.08.15.36.29.73.45 1.08a41.66 41.66 0 0 0 3 5.76 59.79 59.79 0 0 0 6.57 8.16 17.39 17.39 0 0 0 1.57 1.17c.6.39.9.52 1.29.81a26.16 26.16 0 0 1 -1.35-34.69c.23-.27.43-.49.62-.71z" fill="#f5f3e0"/><path d="m127.69 39.1 13.17 6.69c3.58-.74 6.78-1.47 9.63-2.17l-21.59-7.73c-.37 1.11-.78 2.16-1.21 3.21z" fill="#f5f3e0"/><path d="m131.18 25.23 46.15 7.66a52.71 52.71 0 0 0 7.28-6.08l-53.23-4.27c-.05.89-.12 1.8-.2 2.69z" fill="#f5f3e0"/><path d="m124.14 46a62.83 62.83 0 0 1 -7.28 9c6.89-5.61 17.22-7.79 22.17-8.8l-11.79-6a42 42 0 0 1 -3.1 5.8z" fill="#f5f3e0"/><path d="m126.2 39.65c.16-.35.3-.72.45-1.08.41-1 .8-2 1.15-3.08.12-.37.23-.74.34-1.11.39-1.26.73-2.53 1-3.8l.24-1.14c0-.25.1-.49.15-.73.14-.79.26-1.63.36-2.51 0-.38.08-.77.11-1.16.08-.86.14-1.73.19-2.59 0-.4 0-.79 0-1.17 0-.92.07-1.81.08-2.63h-17.27c.35.34.69.69 1 1l.45.5.57.67a26.18 26.18 0 0 1 -1.35 34.69c.39-.29.69-.42 1.29-.81a17.39 17.39 0 0 0 1.57-1.17 59.07 59.07 0 0 0 6.56-8.16 40.64 40.64 0 0 0 3.11-5.72z" fill="#f5f3e0"/><g fill="url(#v)"><path d="m59.52 30.86-34.34 8.58c3 1.08 6.92 2.32 12.12 3.66l23.27-8.33c-.4-1.29-.75-2.59-1.05-3.91z"/><path d="m59.52 30.86-34.34 8.58c3 1.08 6.92 2.32 12.12 3.66l23.27-8.33c-.4-1.29-.75-2.59-1.05-3.91z"/><path d="m62.57 40.18-11.78 6c5 1 15.28 3.19 22.17 8.8a62.14 62.14 0 0 1 -7.28-8.98 43.17 43.17 0 0 1 -3.11-5.82z"/><path d="m62.57 40.18-11.78 6c5 1 15.28 3.19 22.17 8.8a62.14 62.14 0 0 1 -7.28-8.98 43.17 43.17 0 0 1 -3.11-5.82z"/><path d="m58.3 18.65h-50.06c-.26 0-.59 0-1 0-1.76 0-4.57.28-5.62 1.55-.55.73-.41 1.73.43 3a26.27 26.27 0 0 0 2.1 2.59l54.21-4.35c-.02-1.02-.04-1.94-.06-2.79z"/><path d="m58.3 18.65h-50.06c-.26 0-.59 0-1 0-1.76 0-4.57.28-5.62 1.55-.55.73-.41 1.73.43 3a26.27 26.27 0 0 0 2.1 2.59l54.21-4.35c-.02-1.02-.04-1.94-.06-2.79z"/><path d="m60.92 35.89-21.59 7.73c2.85.7 6.05 1.43 9.63 2.17l13.17-6.69c-.43-1.05-.84-2.1-1.21-3.21z"/><path d="m60.92 35.89-21.59 7.73c2.85.7 6.05 1.43 9.63 2.17l13.17-6.69c-.43-1.05-.84-2.1-1.21-3.21z"/><path d="m188.17 20.17c-1-1.27-3.85-1.55-5.61-1.55-.39 0-.73 0-1 0h-50.05c0 .85 0 1.77-.08 2.72l54.22 4.35a26.27 26.27 0 0 0 2.1-2.59c.84-1.2.98-2.2.42-2.93z"/><path d="m188.17 20.17c-1-1.27-3.85-1.55-5.61-1.55-.39 0-.73 0-1 0h-50.05c0 .85 0 1.77-.08 2.72l54.22 4.35a26.27 26.27 0 0 0 2.1-2.59c.84-1.2.98-2.2.42-2.93z"/><path d="m59.12 28.92c-.14-.8-.26-1.65-.36-2.52l-44.87 7.44c.89.6 1.84 1.21 2.86 1.82l.3.17a48.53 48.53 0 0 0 6.21 2.88l36-9c-.03-.26-.09-.53-.14-.79z"/><path d="m59.12 28.92c-.14-.8-.26-1.65-.36-2.52l-44.87 7.44c.89.6 1.84 1.21 2.86 1.82l.3.17a48.53 48.53 0 0 0 6.21 2.88l36-9c-.03-.26-.09-.53-.14-.79z"/><path d="m130.7 28.92c0 .26-.12.53-.17.8l36 9a48.53 48.53 0 0 0 6.21-2.88l.3-.17c1-.61 2-1.22 2.86-1.82l-44.84-7.45c-.06.87-.22 1.72-.36 2.52z"/><path d="m130.7 28.92c0 .26-.12.53-.17.8l36 9a48.53 48.53 0 0 0 6.21-2.88l.3-.17c1-.61 2-1.22 2.86-1.82l-44.84-7.45c-.06.87-.22 1.72-.36 2.52z"/><path d="m58.44 22.54-53.24 4.27a53.52 53.52 0 0 0 7.29 6.08l46.15-7.66c-.09-.89-.15-1.8-.2-2.69z"/><path d="m58.44 22.54-53.24 4.27a53.52 53.52 0 0 0 7.29 6.08l46.15-7.66c-.09-.89-.15-1.8-.2-2.69z"/><path d="m129.24 34.77 23.28 8.33c5.2-1.34 9.14-2.58 12.12-3.66l-34.35-8.58c-.29 1.32-.65 2.62-1.05 3.91z"/><path d="m129.24 34.77 23.28 8.33c5.2-1.34 9.14-2.58 12.12-3.66l-34.35-8.58c-.29 1.32-.65 2.62-1.05 3.91z"/><path d="m75.31 20.19.45-.5c.33-.35.67-.7 1-1h-17.28c0 .82 0 1.71.07 2.63q0 .57.06 1.17c0 .86.11 1.73.19 2.59 0 .39.07.78.11 1.16.1.88.22 1.72.36 2.51 0 .24.1.48.15.73s.15.76.24 1.14c.28 1.27.63 2.54 1 3.8.12.37.23.74.35 1.11.35 1 .74 2.07 1.15 3.08.15.36.29.73.45 1.08a41.66 41.66 0 0 0 3 5.76 59.79 59.79 0 0 0 6.57 8.16 17.39 17.39 0 0 0 1.57 1.17c.6.39.9.52 1.29.81a26.16 26.16 0 0 1 -1.35-34.69c.23-.27.43-.49.62-.71z"/><path d="m75.31 20.19.45-.5c.33-.35.67-.7 1-1h-17.28c0 .82 0 1.71.07 2.63q0 .57.06 1.17c0 .86.11 1.73.19 2.59 0 .39.07.78.11 1.16.1.88.22 1.72.36 2.51 0 .24.1.48.15.73s.15.76.24 1.14c.28 1.27.63 2.54 1 3.8.12.37.23.74.35 1.11.35 1 .74 2.07 1.15 3.08.15.36.29.73.45 1.08a41.66 41.66 0 0 0 3 5.76 59.79 59.79 0 0 0 6.57 8.16 17.39 17.39 0 0 0 1.57 1.17c.6.39.9.52 1.29.81a26.16 26.16 0 0 1 -1.35-34.69c.23-.27.43-.49.62-.71z"/><path d="m127.69 39.1 13.17 6.69c3.58-.74 6.78-1.47 9.63-2.17l-21.59-7.73c-.37 1.11-.78 2.16-1.21 3.21z"/><path d="m127.69 39.1 13.17 6.69c3.58-.74 6.78-1.47 9.63-2.17l-21.59-7.73c-.37 1.11-.78 2.16-1.21 3.21z"/><path d="m131.18 25.23 46.15 7.66a52.71 52.71 0 0 0 7.28-6.08l-53.23-4.27c-.05.89-.12 1.8-.2 2.69z"/><path d="m131.18 25.23 46.15 7.66a52.71 52.71 0 0 0 7.28-6.08l-53.23-4.27c-.05.89-.12 1.8-.2 2.69z"/><path d="m124.14 46a62.83 62.83 0 0 1 -7.28 9c6.89-5.61 17.22-7.79 22.17-8.8l-11.79-6a42 42 0 0 1 -3.1 5.8z"/><path d="m124.14 46a62.83 62.83 0 0 1 -7.28 9c6.89-5.61 17.22-7.79 22.17-8.8l-11.79-6a42 42 0 0 1 -3.1 5.8z"/><path d="m126.2 39.65c.16-.35.3-.72.45-1.08.41-1 .8-2 1.15-3.08.12-.37.23-.74.34-1.11.39-1.26.73-2.53 1-3.8l.24-1.14c0-.25.1-.49.15-.73.14-.79.26-1.63.36-2.51 0-.38.08-.77.11-1.16.08-.86.14-1.73.19-2.59 0-.4 0-.79 0-1.17 0-.92.07-1.81.08-2.63h-17.27c.35.34.69.69 1 1l.45.5.57.67a26.18 26.18 0 0 1 -1.35 34.69c.39-.29.69-.42 1.29-.81a17.39 17.39 0 0 0 1.57-1.17 59.07 59.07 0 0 0 6.56-8.16 40.64 40.64 0 0 0 3.11-5.72z"/><path d="m126.2 39.65c.16-.35.3-.72.45-1.08.41-1 .8-2 1.15-3.08.12-.37.23-.74.34-1.11.39-1.26.73-2.53 1-3.8l.24-1.14c0-.25.1-.49.15-.73.14-.79.26-1.63.36-2.51 0-.38.08-.77.11-1.16.08-.86.14-1.73.19-2.59 0-.4 0-.79 0-1.17 0-.92.07-1.81.08-2.63h-17.27c.35.34.69.69 1 1l.45.5.57.67a26.18 26.18 0 0 1 -1.35 34.69c.39-.29.69-.42 1.29-.81a17.39 17.39 0 0 0 1.57-1.17 59.07 59.07 0 0 0 6.56-8.16 40.64 40.64 0 0 0 3.11-5.72z"/></g><path d="m113.52 20.86c-.2-.23-.4-.45-.61-.67l-.49-.5c-.36-.36-.73-.7-1.12-1-.22-.2-.45-.39-.68-.58l-.74-.59a24.9 24.9 0 0 0 -14.39-5h-.67-.5a24.9 24.9 0 0 0 -14.38 5l-.74.59c-.23.19-.46.38-.68.58-.39.34-.76.68-1.13 1l-.48.5c-.21.22-.42.44-.62.67a25 25 0 0 0 18 41.59h.5.67a25 25 0 0 0 18-41.59zm-4.52 4.64c-3.36.21-4.25 3.62-4.25 3.62l-9.05 28.48h-1.58l-9.07-28.48s-.89-3.41-4.25-3.62v-1.64h11.74v1.52s-4-.07-3.54 1.85 5.91 18.82 5.91 18.82 5.42-16.9 5.92-18.82-3.55-1.85-3.55-1.85v-1.52h11.72z" fill="url(#w)"/></g></svg>