<svg height="24" viewBox="0 0 22.781 24" width="22.781" xmlns="http://www.w3.org/2000/svg"><path d="m122.727 47.389a6.164 6.164 0 0 1 -.883 2.249 4.75 4.75 0 0 1 -1.728 1.55 6.7 6.7 0 0 1 -3.243.811 9.045 9.045 0 0 1 -2.739-.455 21.273 21.273 0 0 1 -5.17-2.7 18.357 18.357 0 0 1 -3.782-3.448 18.2 18.2 0 0 1 -2.974-4.145 20.622 20.622 0 0 1 -2.042-5.4 7.127 7.127 0 0 1 1.145-5.793 4.75 4.75 0 0 1 1.789-1.488 6.383 6.383 0 0 1 2.38-.565 1.655 1.655 0 0 1 1.709 1.017c.344.729.7 1.467 1.052 2.181.251.512.509 1.042.761 1.566a7.41 7.41 0 0 1 .4 1.01 1.407 1.407 0 0 1 -.564 1.655c-.753.586-1.487 1.161-2.19 1.747-.027.024-.082.069-.117.1a1.628 1.628 0 0 0 .076.215 14.865 14.865 0 0 0 2.662 4.353l.016.018a15.1 15.1 0 0 0 4.033 3.171 1.5 1.5 0 0 0 .207.1c.039-.029.092-.076.119-.1.682-.609 1.357-1.251 2.047-1.908a1.457 1.457 0 0 1 1.74-.334 7.814 7.814 0 0 1 .965.524c.494.314.994.636 1.476.947.673.435 1.369.884 2.057 1.314a1.616 1.616 0 0 1 .798 1.808z" fill="#bda26a" fill-rule="evenodd" transform="translate(-100 -28)"/></svg>